# xmcd
#
# Track frame offsets:
#	150
#	12855
#	23600
#	43217
#	55327
#	65845
#	75077
#	91447
#	104875
#	117882
#	131095
#	144755
#	158325
#	170080
#
# Disc length: 2432
#
# Revision: 4
# Processed by: cddbd v1.5.1PL0 Copyright (c) Steve Scherf et al.
# Submitted via: ExactAudioCopy v0.95a4
# Normalized: r3:DSETVAR1
#
DISCID=b4097e0e
DTITLE=Various Artist - Legendary Country Stars 1959-1978
DYEAR=1900
DGENRE=Country
TTITLE0=Patsy Cline - I Fall To Pieces
TTITLE1=Jim Reeves - Welcome To My World
TTITLE2=Marty Robbins - El Paso
TTITLE3=Eddy Arnold - Make The World Go Away
TTITLE4=Barbara Mandrell - Sleeping Single In A Double Bed
TTITLE5=Charley Pride - Kiss An Angel Good Mornin'
TTITLE6=Ronnie Milsap - It Was Almost Like A Song
TTITLE7=Waylon Jennings-Willie Nelson - Good Hearted Woman
TTITLE8=Dolly Parton - Here You Come Again
TTITLE9=Charlie Rich - Behind Closed Doors
TTITLE10=Conway Twitty - You've Never Been This Far Before
TTITLE11=Glen Campbell - Southern Nights
TTITLE12=Crystal Gayle - Don't It Make My Brown Eyes Blue
TTITLE13=Bobby Bare - Four Strong Winds
EXTD=ID3G:   2
EXTT0=
EXTT1=
EXTT2=
EXTT3=
EXTT4=
EXTT5=
EXTT6=
EXTT7=
EXTT8=
EXTT9=
EXTT10=
EXTT11=
EXTT12=
EXTT13=
PLAYORDER=
